<svg
   id="aaafdec0-95c8-49a3-a8f8-64216c6da511"
   data-name="Layer 1"
   xmlns="http://www.w3.org/2000/svg"
   width="1013.44925"
   height="610.28138"
   viewBox="390 0 100 500"
>
   <title>message sent</title>
   <path
      d="M766.64644,753.85087H381.81268a47.58312,47.58312,0,0,1-47.58312-47.58312V529.956a18.85083,18.85083,0,0,1,5.88232-13.68106L544.0357,322.97213a43.88936,43.88936,0,0,1,60.38773,0L798.854,507.27609a49.27354,49.27354,0,0,1,15.37558,35.76045V706.26775A47.58312,47.58312,0,0,1,766.64644,753.85087Z"
      transform="translate(-63.27537 -294.85931)"
      fill="#3f3d56"
   />
   <path
      d="M240.95419,387.99156h476a0,0,0,0,1,0,0V580.25928a28.73228,28.73228,0,0,1-28.73228,28.73228H269.68647a28.73228,28.73228,0,0,1-28.73228-28.73228V387.99156a0,0,0,0,1,0,0Z"
      opacity="0.1"
      transform="translate(30, -150)"
   />
   <path
      d="M333.72956,521.35087"
      transform="translate(-63.27537 -294.85931)"
      fill="none"
      stroke="#3f3d56"
      stroke-miterlimit="10"
   />
   <rect
      x="303.45419"
      y="236.49156"
      width="354"
      height="354"
      rx="26.1811"
      fill="#6c63ff"
      transform="translate(30, -150)"
   />
   <polygon
      points="657.454 395.942 657.454 590.492 303.454 590.492 303.454 395.942 480.454 481.492 657.454 395.942"
      opacity="0.1"
      transform="translate(30, -150)"
   />
   <path
      d="M573.72956,637.35087l-226.7938-109.617a9.20185,9.20185,0,0,0-13.2062,8.28487V724.61858a28.73228,28.73228,0,0,0,28.73228,28.73229H784.99728a28.73228,28.73228,0,0,0,28.73228-28.73229v-185.369a11.22869,11.22869,0,0,0-16.11507-10.10975Z"
      transform="translate(-63.27537 -294.85931)"
      fill="#3f3d56"
   />
   <rect
      x="333.95419"
      y="268.99156"
      width="99"
      height="14"
      fill="#f2f2f2"
      transform="translate(30, -150)"
   />
   <rect
      x="325.95419"
      y="319.99156"
      width="294"
      height="8"
      fill="#f2f2f2"
      transform="translate(30, -150)"
   />
   <rect
      x="325.95419"
      y="346.99156"
      width="294"
      height="8"
      fill="#f2f2f2"
      transform="translate(30, -150)"
   />
   <rect
      x="325.95419"
      y="373.99156"
      width="294"
      height="8"
      fill="#f2f2f2"
      transform="translate(30, -150)"
   />
   <line
      x1="60.95419"
      y1="608.49156"
      x2="884.95419"
      y2="608.49156"
      fill="none"
      stroke="#3f3d56"
      stroke-miterlimit="10"
      transform="translate(30, -150)"
   />
   <path
      d="M93.27537,630.2124c0,58.96027,36.98858,106.67017,82.69935,106.67017"
      transform="translate(-63.27537 -294.85931)"
      fill="#46455b"
   />
   <path
      d="M175.97472,736.88257c0-59.62274,41.2771-107.86871,92.28767-107.86871"
      transform="translate(-63.27537 -294.85931)"
      fill="#6c63ff"
   />
   <path
      d="M123.2389,635.55725c0,56.006,23.58692,101.32532,52.73582,101.32532"
      transform="translate(-63.27537 -294.85931)"
      fill="#6c63ff"
   />
   <path
      d="M175.97472,736.88257c0-76.18461,47.7099-137.83224,106.67016-137.83224"
      transform="translate(-63.27537 -294.85931)"
      fill="#46455b"
   />
   <path
      d="M158.57691,737.63461s11.72813-.36122,15.26269-2.87813,18.04081-5.52225,18.91765-1.48567,17.6252,20.07611,4.3842,20.18291-30.76619-2.06249-34.29395-4.21139S158.57691,737.63461,158.57691,737.63461Z"
      transform="translate(-63.27537 -294.85931)"
      fill="#a8a8a8"
   />
   <path
      d="M197.37775,752.04857c-13.241.10684-30.76618-2.06247-34.29395-4.21138-2.68658-1.6365-3.75715-7.50866-4.11536-10.21785-.24807.01067-.39153.01526-.39153.01526s.74283,9.45882,4.2706,11.60772,21.053,4.31822,34.29394,4.21138c3.82216-.03082,5.14239-1.39069,5.0699-3.40477C201.68037,751.26579,200.22263,752.02564,197.37775,752.04857Z"
      transform="translate(-63.27537 -294.85931)"
      opacity="0.2"
   />
   <ellipse
      cx="317.95419"
      cy="242.06613"
      rx="41"
      ry="41.07457"
      fill="#fff"
      transform="translate(30, -150)"
   />
   <path
      d="M411.22956,338.85087a49,49,0,1,0,49,49A49.14406,49.14406,0,0,0,411.22956,338.85087Zm-10.05913,75.12548-25.1125-25.11251,7.04374-7.04374L401.194,399.91241l38.187-38.187,7.04375,7.04375-45.25433,45.20721Z"
      transform="translate(-63.27537 -294.85931)"
      fill="#57b894"
   />
</svg>
